:SAMPLES-PER-SECOND 30
:FULLY-SPECIFIED
:DEGREES
592
root  -20.4503 39.3287 9.02708 151.669 -85.7781 -159.952
RightUpLeg  -5.8665 -8.85181 -0.509066
RightLeg  16.0117 3.95318 2.30465
RightFoot  -4.9739 -0.112867 1.41911
RightToes  -5.8209e-011 0 -3.6325e-017
Spine  7.27741 -3.07019 6.74305
Spine1  9.42155 -3.2426 4.32465
HEad  -21.6705 4.52389 -4.03779
LeftShoulder1  0.313905 2.67754 -31.9008
LeftArm  -5.85592 13.7729 -43.5766
LeftForeArm  34.7749 0.218698 -7.70551
LeftHand  -0.248855 11.8646 -3.1792
RightShoulder  -0.618153 -5.29676 27.7489
RightArm  4.72497 -13.9417 33.9906
RightForeArm  -7.73203 3.35436 3.28284
RightHand  -0.38738 3.28998 -5.40891
LeftUpLeg  2.94435 0.846145 4.32075
LeftLeg  39.4917 -0.493148 -0.0627104
LeftFoot  -12.1778 0.0210353 -7.10472
LeftToes  -8.31281e-010 4.41007e-011 3.74621e-011
593
root  -19.5326 39.2042 9.22805 144.73 -86.2487 -152.668
RightUpLeg  -7.70593 -8.80049 -0.344333
RightLeg  15.8856 3.22313 2.18216
RightFoot  -3.85875 -0.159943 2.04637
RightToes  -5.8209e-011 0 -3.6325e-017
Spine  6.79779 -3.30702 5.549
Spine1  9.73667 -3.84423 5.29975
HEad  -21.931 4.94225 -2.78148
LeftShoulder1  0.322153 2.64761 -31.5268
LeftArm  -4.45307 17.0609 -42.3421
LeftForeArm  35.2805 -1.37996 -8.56326
LeftHand  -0.14701 10.5503 -1.92114
RightShoulder  -0.648322 -5.39342 27.6017
RightArm  5.3262 -16.8897 32.0272
RightForeArm  -8.96979 4.87595 3.28957
RightHand  -0.339731 2.95685 -4.95325
LeftUpLeg  5.48913 0.667611 4.44168
LeftLeg  39.1759 -2.33737 -1.67046
LeftFoot  -11.5495 0.0567472 -7.5394
LeftToes  -8.31281e-010 4.41007e-011 3.74621e-011
594
root  -18.5407 39.0406 9.4671 135.611 -86.6784 -143.209
RightUpLeg  -9.59164 -8.98296 -0.335263
RightLeg  15.6775 2.74557 2.22558
RightFoot  -2.69202 -0.228727 2.77637
RightToes  -5.8209e-011 0 -3.6325e-017
Spine  6.50934 -3.5196 4.98115
Spine1  9.80422 -4.18798 5.53835
HEad  -22.1503 5.08865 -2.1622
LeftShoulder1  0.257897 2.81608 -31.4376
LeftArm  -3.61421 18.7868 -41.2099
LeftForeArm  35.1957 -2.10345 -8.96878
LeftHand  -0.118763 9.87088 -1.59888
RightShoulder  -0.604359 -5.28001 27.2935
RightArm  6.35551 -18.6145 31.1835
RightForeArm  -7.53387 5.20258 3.44305
RightHand  -0.376283 3.27742 -5.2771
LeftUpLeg  8.02182 0.417871 4.53188
LeftLeg  37.322 -4.46807 -3.27202
LeftFoot  -11.4301 0.0570124 -9.34127
LeftToes  -8.31281e-010 4.41007e-011 3.74621e-011
595
root  -17.4991 38.9097 9.7246 133.516 -86.87 -140.689
RightUpLeg  -11.3052 -9.0416 -0.52561
RightLeg  14.653 2.37701 2.20396
RightFoot  -1.22927 -0.345301 3.8083
RightToes  -5.8209e-011 0 -3.6325e-017
Spine  6.23004 -3.26812 4.5896
Spine1  9.81281 -3.93262 4.93688
HEad  -22.6549 4.59943 -1.44523
LeftShoulder1  0.312651 2.65849 -30.8802
LeftArm  -3.37894 19.0495 -41.0026
LeftForeArm  33.5917 -2.18768 -9.05131
LeftHand  -0.142308 9.99637 -2.10051
RightShoulder  -0.612998 -5.29764 27.4454
RightArm  6.75646 -19.2095 31.0871
RightForeArm  -5.44764 4.80634 3.43623
RightHand  -0.422622 3.19454 -5.95108
LeftUpLeg  10.4209 0.776345 4.41856
LeftLeg  33.9003 -7.40382 -4.97492
LeftFoot  -12.7321 -0.0406593 -9.77949
LeftToes  -8.31281e-010 4.41007e-011 3.74621e-011
596
root  -16.3971 38.8275 9.99595 134.461 -87.249 -141.387
RightUpLeg  -12.1806 -9.20415 -1.20027
RightLeg  12.3215 2.0829 2.39088
RightFoot  0.243956 -0.555242 5.46241
RightToes  -5.8209e-011 0 -3.6325e-017
Spine  6.30419 -2.88484 3.51824
Spine1  9.74975 -3.76763 4.7687
HEad  -23.4113 3.77019 -0.604808
LeftShoulder1  0.224457 2.90574 -31.4439
LeftArm  -3.41158 17.6014 -40.5656
LeftForeArm  31.705 -2.3928 -9.00333
LeftHand  -0.104172 10.143 -1.1525
RightShoulder  -0.57095 -5.18964 27.0999
RightArm  6.451 -18.5596 32.1269
RightForeArm  -3.76491 3.6419 3.33889
RightHand  -0.428577 3.42214 -5.87654
LeftUpLeg  12.543 0.911032 3.58134
LeftLeg  29.1396 -9.17673 -5.17763
LeftFoot  -15.1421 -0.0912041 -5.87798
LeftToes  -8.31281e-010 4.41007e-011 3.74621e-011
597
root  -15.1578 38.7264 10.2981 139.116 -88.083 -145.611
RightUpLeg  -13.0979 -9.14426 -2.32349
RightLeg  9.38949 1.41743 2.4057
RightFoot  1.5424 -0.881381 7.90228
RightToes  -5.8209e-011 0 -3.6325e-017
Spine  6.75595 -2.53876 2.19188
Spine1  9.35035 -3.56617 4.31882
HEad  -24.3957 2.85428 -0.117555
LeftShoulder1  0.136738 3.14461 -31.9187
LeftArm  -3.33788 14.5691 -40.5286
LeftForeArm  31.0808 -2.42086 -9.09206
LeftHand  -0.0749019 10.5279 -0.374975
RightShoulder  -0.501367 -4.99295 26.8447
RightArm  5.11208 -16.9047 34.0188
RightForeArm  -5.01235 2.08866 3.08152
RightHand  -0.523971 4.14249 -6.65483
LeftUpLeg  13.1732 0.643946 2.0373
LeftLeg  24.0057 -8.76941 -3.93895
LeftFoot  -19.2122 -0.00654232 -1.69022
LeftToes  -8.31281e-010 4.41007e-011 3.74621e-011
598
root  -13.7954 38.6199 10.6315 170.4 -88.6621 -176.945
RightUpLeg  -13.8598 -9.39781 -3.84238
RightLeg  6.79486 0.924209 2.40537
RightFoot  2.41592 -1.04465 8.79514
RightToes  -5.8209e-011 0 -3.6325e-017
Spine  7.90805 -2.23669 0.671433
Spine1  9.53509 -3.20257 3.34554
HEad  -26.5131 2.48936 0.756629
LeftShoulder1  0.0853823 3.27893 -31.8511
LeftArm  -3.15594 10.2148 -41.2997
LeftForeArm  31.5895 -2.28144 -9.30542
LeftHand  -0.0969237 10.4483 -0.920694
RightShoulder  -0.491237 -4.94418 27.2559
RightArm  3.8738 -13.6415 36.1688
RightForeArm  -5.20783 1.06815 2.9202
RightHand  -0.504961 3.49984 -6.83496
LeftUpLeg  12.5175 0.534065 -0.320158
LeftLeg  21.1506 -6.03523 -2.2371
LeftFoot  -20.933 0.276131 1.8327
LeftToes  -8.31281e-010 4.41007e-011 3.74621e-011
599
root  -12.4001 38.5138 10.9239 -130.098 -88.075 123.508
RightUpLeg  -14.6117 -9.58612 -5.58131
RightLeg  4.13921 0.827456 2.01918
RightFoot  1.13986 -1.16541 10.6729
RightToes  -5.8209e-011 0 -3.6325e-017
Spine  9.01841 -1.84111 -1.47516
Spine1  9.86949 -2.69577 2.36463
HEad  -28.7069 1.72643 2.06872
LeftShoulder1  0.117616 3.19384 -31.8412
LeftArm  -2.91113 5.43673 -41.936
LeftForeArm  30.8239 -2.34163 -9.57899
LeftHand  -0.0607385 11.2474 0.13449
RightShoulder  -0.50019 -4.9544 27.64
RightArm  2.53824 -9.86525 38.9689
RightForeArm  -3.81931 0.856774 2.70147
RightHand  -0.460855 3.04205 -6.57723
LeftUpLeg  10.7694 0.545711 -3.13165
LeftLeg  20.1074 -3.88942 -1.23883
LeftFoot  -21.4062 0.507086 4.31156
LeftToes  -8.31281e-010 4.41007e-011 3.74621e-011
600
root  -11.0506 38.4874 11.1742 -117.028 -86.9083 110.61
RightUpLeg  -14.6361 -9.81915 -6.74149
RightLeg  0.201626 1.56098 1.60422
RightFoot  -2.10679 -0.938722 11.5425
RightToes  -5.8209e-011 0 -3.6325e-017
Spine  9.70859 -1.57549 -2.88454
Spine1  10.1722 -2.14997 0.973846
HEad  -30.1862 0.901165 2.84283
LeftShoulder1  0.180698 3.02723 -31.7908
LeftArm  -2.67626 0.852572 -42.4911
LeftForeArm  29.2658 -2.65612 -9.78292
LeftHand  0.0393358 9.46563 2.37456
RightShoulder  -0.487722 -4.9188 27.6061
RightArm  2.44711 -5.96485 42.3579
RightForeArm  -2.81762 1.34413 3.03043
RightHand  -0.471933 3.74189 -6.25152
LeftUpLeg  8.12366 1.56373 -4.65789
LeftLeg  20.466 -4.05825 -1.33616
LeftFoot  -20.9287 0.592734 5.56908
LeftToes  -8.31281e-010 4.41007e-011 3.74621e-011
601
root  -9.83952 38.5293 11.4029 -108.677 -86.2613 102.468
RightUpLeg  -13.8012 -9.85204 -7.60637
RightLeg  -4.14602 1.35937 1.04994
RightFoot  -5.47081 -0.756303 13.8255
RightToes  -5.8209e-011 0 -3.6325e-017
Spine  9.97013 -1.60638 -3.39058
Spine1  10.0936 -1.71837 -0.82821
HEad  -30.6816 -0.135091 2.44262
LeftShoulder1  0.256268 2.82759 -31.8163
LeftArm  -2.41672 -3.24974 -42.8891
LeftForeArm  27.4389 -3.13076 -9.97657
LeftHand  0.0550206 8.55644 3.65654
RightShoulder  -0.428274 -4.74826 27.4774
RightArm  3.90523 -2.31067 45.3967
RightForeArm  -1.56671 2.57948 3.90002
RightHand  -0.450795 3.81506 -5.94361
LeftUpLeg  5.06902 1.36708 -6.03653
LeftLeg  21.794 -3.5589 -1.22666
LeftFoot  -19.5112 0.556521 6.13358
LeftToes  -8.31281e-010 4.41007e-011 3.74621e-011
602
root  -8.69712 38.7066 11.657 -113.986 -86.1118 108.164
RightUpLeg  -14.3965 -10.009 -7.69561
RightLeg  -3.51134 0.53938 1.21782
RightFoot  -5.30986 -0.789529 14.227
RightToes  -5.8209e-011 0 -3.6325e-017
Spine  9.85688 -1.59167 -2.23128
Spine1  9.97704 -1.08056 -2.69999
HEad  -29.8752 -0.869888 1.01606
LeftShoulder1  0.384789 2.47523 -31.3204
LeftArm  -2.96782 -6.09374 -44.2273
LeftForeArm  26.2149 -3.8616 -9.65746
LeftHand  0.0476113 7.09431 5.21776
RightShoulder  -0.39502 -4.65126 27.4283
RightArm  6.50456 1.59242 48.19
RightForeArm  0.0651 3.61738 5.10141
RightHand  -0.472038 3.83616 -6.18169
LeftUpLeg  2.69522 1.80008 -6.37962
LeftLeg  21.6248 -3.69743 -1.27656
LeftFoot  -17.3929 0.430343 6.1537
LeftToes  -8.31281e-010 4.41007e-011 3.74621e-011
603
root  -7.69543 38.9549 11.9063 -131.967 -86.1657 126.142
RightUpLeg  -14.9694 -10.0777 -7.07803
RightLeg  1.23079 -0.256346 1.75358
RightFoot  -5.52078 -0.689426 12.7625
RightToes  -5.8209e-011 0 -3.6325e-017
Spine  9.70107 -1.45573 -0.183516
Spine1  9.83081 -0.336003 -4.49919
HEad  -28.4865 -1.35011 -1.06398
LeftShoulder1  0.43398 2.3319 -30.9261
LeftArm  -3.57667 -8.0663 -45.9613
LeftForeArm  24.3505 -4.95391 -9.18194
LeftHand  0.0763841 7.81855 5.33797
RightShoulder  -0.253928 -4.25095 26.3745
RightArm  9.97362 5.26789 51.2111
RightForeArm  1.89461 5.06139 6.54759
RightHand  -0.560796 4.37639 -6.94336
LeftUpLeg  1.58781 2.13654 -6.10688
LeftLeg  20.2814 -3.15664 -0.938891
LeftFoot  -15.0132 0.291005 6.26451
LeftToes  -8.31281e-010 4.41007e-011 3.74621e-011
604
root  -6.79127 39.1849 12.0845 -151.28 -85.81 144.934
RightUpLeg  -14.5428 -10.5653 -6.25936
RightLeg  7.04689 1.16655 1.50887
RightFoot  -6.07357 -0.589638 11.8814
RightToes  -5.8209e-011 0 -3.6325e-017
Spine  9.85522 -1.29828 0.349881
Spine1  9.51451 -0.163999 -4.63072
HEad  -26.4967 -1.43012 -3.15597
LeftShoulder1  0.405362 2.40305 -30.7929
LeftArm  -3.09695 -8.79102 -47.2452
LeftForeArm  21.9659 -7.47608 -8.97884
LeftHand  0.0358231 6.63262 6.02683
RightShoulder  -0.0820182 -3.74211 24.9579
RightArm  13.417 9.16052 54.3755
RightForeArm  5.80246 6.68604 7.74147
RightHand  -0.494341 4.51357 -6.07359
LeftUpLeg  1.46906 3.22126 -5.48537
LeftLeg  18.5071 -3.26088 -0.805802
LeftFoot  -12.7512 0.157026 6.51755
LeftToes  -8.31281e-010 4.41007e-011 3.74621e-011
